<svg width="856" height="677" viewBox="0 0 856 677" fill="none" xmlns="http://www.w3.org/2000/svg">
<g id="tree 1" clip-path="url(#clip0)">
<path id="Vector" d="M393.58 23.2329C394.097 24.4136 394.483 25.6477 394.73 26.9129C394.17 24.9829 393.73 23.6729 393.58 23.2329Z" fill="#3F3D56"/>
<path id="Vector_2" d="M411.32 84.373C411.32 84.373 411.32 85.753 409.83 90.733L411.32 84.373Z" fill="#3F3D56"/>
<path id="Vector_3" d="M593.91 292.683C554.58 313.183 503.13 330.883 487.72 336.013C499.47 332.953 533.67 328.833 586.66 361.893C653.24 403.423 724.43 375.733 724.43 375.733C724.43 375.733 708.61 406.063 674.99 408.033C641.37 410.013 553.7 354.643 524.04 370.463C494.37 386.283 480.53 366.503 468.66 406.063C456.8 445.613 435.05 553.713 460.1 614.363L485.14 675.003H342.76C342.76 675.003 394.18 537.893 365.83 453.523C349.96 406.273 327.68 372.053 319.37 354.663C315.2 345.953 314.54 341.473 319.94 341.693C323.01 341.823 328.04 343.473 335.51 346.733C335.51 346.733 301.23 313.113 290.03 313.113C278.82 313.113 226.08 307.843 208.95 290.043C208.95 290.043 184.56 272.903 141.05 315.093C97.54 357.283 108.09 357.283 69.2 353.983C30.92 350.733 0.93 332.163 0 331.583C1.11 332.033 45.82 349.903 73.15 340.803C100.84 331.573 124.57 296.633 148.96 284.773C173.35 272.903 187.85 257.083 220.81 274.223L199.09 223.013L193.14 208.983L193.13 208.963C193.13 208.963 185.87 112.723 172.03 106.133C158.19 99.5329 166.76 82.4029 141.05 79.1029C141.05 79.1029 172.69 75.1429 178.62 96.9029C184.56 118.653 225.43 235.993 225.43 235.993C225.43 235.993 250.47 286.083 278.16 274.223C305.85 262.353 267.61 195.783 267.61 195.783L220.15 174.023C220.15 174.023 255.75 172.703 277.5 193.143C299.25 213.573 300.57 279.493 300.57 279.493C300.57 279.493 355.28 287.403 368.47 317.073C368.47 317.073 377.04 290.703 360.56 274.883C356.44 270.923 352.11 264.043 347.94 255.953C332.133 224.902 326.42 189.689 331.6 155.233C334.05 138.373 335.56 121.883 332.87 117.993C326.94 109.423 301.89 56.6929 299.91 42.8429C297.94 29.0029 301.89 0.00292969 301.89 0.00292969C301.89 0.00292969 302.55 35.5929 310.46 46.8029C318.37 58.0129 340.78 113.383 340.78 113.383C340.78 113.383 340.78 183.253 359.24 217.533C377.7 251.813 413.29 290.043 411.32 315.093V329.593C411.32 329.593 450.87 292.023 448.23 279.493C445.59 266.973 442.3 237.303 417.25 219.513C392.2 201.713 375.72 173.363 393.52 132.493C403.53 109.503 407.91 97.1529 409.83 90.7429L399.45 135.133C399.45 135.133 392.86 180.613 411.32 196.433C411.37 196.473 411.41 196.513 411.46 196.553C429.89 212.393 454.16 241.263 454.16 241.263L454.09 239.993L448.89 146.343L450.03 148.843L458.25 166.863L466.03 183.913C466.03 183.913 502.94 136.453 546.45 120.633C589.95 104.813 616.98 49.4429 616.98 49.4429L653.9 20.4329L623.57 56.6929C623.57 56.6929 614.34 99.5329 562.27 129.863C510.19 160.183 476.58 205.003 474.6 232.693C472.62 260.383 470.64 284.773 470.64 284.773C470.64 284.773 568.2 281.473 589.95 238.623C611.71 195.783 629.51 193.803 629.51 193.803L616.98 230.713L603.14 262.353C603.14 262.353 659.83 263.673 689.49 297.293C719.16 330.913 792.98 340.803 792.98 340.803L751.46 352.003C751.46 352.003 711.9 338.823 674.33 314.433C636.76 290.043 640.71 268.293 593.91 292.683Z" fill="#3F3D56"/>
<path id="Vector_4" opacity="0.1" d="M614.93 202.743C610.76 221.203 605.85 239.033 598.95 252.623C577.2 295.473 479.64 298.773 479.64 298.773C479.64 298.773 480.1 293.113 480.8 284.183C505.57 282.143 573.28 273.433 590.95 238.623C592.57 235.443 594.07 232.023 595.49 228.423L614.93 202.743Z" fill="black"/>
<path id="Vector_5" opacity="0.1" d="M463.16 255.263C463.16 255.263 438.77 226.253 420.32 210.433C416.27 206.973 413.43 202.073 411.46 196.553C411.3 196.113 411.15 195.663 411 195.213C411.43 195.633 411.86 196.043 412.32 196.433C428.47 210.283 449.18 234.243 454.09 239.993C454.78 240.813 455.16 241.263 455.16 241.263L450.03 148.843L458.25 166.863L463.16 255.263Z" fill="black"/>
<path id="Vector_6" opacity="0.1" d="M477.279 172.03C477.135 188.26 475.028 197.913 475.028 197.913C475.028 197.913 511.927 150.472 555.422 134.641C557.992 133.015 560.6 131.414 563.269 129.859C615.345 99.5368 624.574 56.6898 624.574 56.6898L654.896 20.4346L617.982 49.4387C617.982 49.4387 590.955 104.81 547.449 120.631C517.793 131.415 491.205 156.896 477.279 172.03Z" fill="black"/>
<path id="Vector_7" opacity="0.1" d="M420.316 329.09V343.593C420.316 343.593 459.867 306.019 457.23 293.494C455.214 283.916 452.8 264.318 440.577 247.665C446.087 260.25 447.763 272.525 449.23 279.494C451.121 288.476 431.319 310.336 419.963 321.987C420.361 324.333 420.48 326.717 420.316 329.09V329.09Z" fill="black"/>
<path id="Vector_8" opacity="0.1" d="M367.262 229.57C367.575 230.238 367.898 230.895 368.24 231.531C378.349 250.304 393.588 270.259 404.99 288.589C395.775 270.437 379.738 249.679 367.262 229.57Z" fill="black"/>
<path id="Vector_9" opacity="0.1" d="M587.659 361.893C565.974 348.367 547.44 341.068 532.299 337.37C516.417 343.348 503.345 347.805 496.768 349.993C508.564 346.94 542.739 342.884 595.659 375.893C637.179 401.792 680.492 400.771 707.215 396.334C714.605 390.758 720.799 383.753 725.428 375.736C725.428 375.736 654.236 403.421 587.659 361.893Z" fill="black"/>
<path id="Vector_10" opacity="0.1" d="M399.399 201.506C394.083 188.482 393.207 172.984 399.314 154.823C399.238 148.241 399.618 141.662 400.451 135.133L410.83 90.7319C408.917 97.135 404.538 109.488 394.518 132.496C381.833 161.625 386.567 184.386 399.399 201.506Z" fill="black"/>
<path id="Vector_11" opacity="0.1" d="M690.492 297.292C669.92 273.978 636.356 266.2 617.71 263.621L612.139 276.356C612.139 276.356 668.829 277.674 698.492 311.292C714.942 329.935 744.969 341.278 768.46 347.686L793.984 340.799C793.984 340.799 720.155 330.911 690.492 297.292Z" fill="black"/>
<path id="Vector_12" opacity="0.1" d="M287.16 288.221C314.846 276.356 276.614 209.778 276.614 209.778L275.568 209.299C285.099 229.409 298.923 265.752 279.16 274.221C260.668 282.147 243.354 262.429 233.894 248.459C234.237 249.447 234.426 249.989 234.426 249.989C234.426 249.989 259.475 300.087 287.16 288.221Z" fill="black"/>
<path id="Vector_13" opacity="0.1" d="M377.469 331.068C377.469 331.068 385.811 305.353 370.139 289.477C373.983 303.154 369.469 317.068 369.469 317.068C359.27 294.121 324.227 284.194 308.877 280.874C309.472 288.514 309.573 293.495 309.573 293.495C309.573 293.495 364.285 301.405 377.469 331.068Z" fill="black"/>
<path id="Vector_14" opacity="0.1" d="M410.83 90.7321C412.316 85.7617 412.316 84.376 412.316 84.376L410.83 90.7321Z" fill="black"/>
<path id="Vector_15" opacity="0.1" d="M81.7539 354.925C81.8869 354.882 82.0219 354.843 82.1539 354.799C109.84 345.57 133.57 310.633 157.96 298.768C182.35 286.903 196.852 271.082 229.811 288.221C229.811 288.221 224.045 264.619 212.871 249.112C216.572 257.207 219.564 265.609 221.811 274.221C188.852 257.082 174.35 272.903 149.96 284.768C125.571 296.633 101.84 331.57 74.1539 340.799C46.4682 350.028 0.984375 331.57 0.984375 331.57C0.984375 331.57 31.3069 350.687 70.1989 353.983C74.6479 354.36 78.444 354.692 81.7539 354.925Z" fill="black"/>
<path id="Vector_16" opacity="0.1" d="M202.129 222.963C202.129 222.963 201.05 222.983 199.09 223.013L193.139 208.983C193.789 208.973 194.129 208.963 194.129 208.963C194.129 208.963 189.549 148.263 180.729 119.973C180.839 120.023 180.93 120.083 181.03 120.133C194.87 126.723 202.129 222.963 202.129 222.963Z" fill="black"/>
<path id="Vector_17" opacity="0.1" d="M356.576 675.006C368.654 637.98 397.701 535.595 374.832 467.519C364.956 438.121 355.802 419.374 348.063 407.414C353.851 418.736 360.178 433.711 366.832 453.519C395.177 537.895 343.761 675.006 343.761 675.006H356.576Z" fill="black"/>
<path id="Vector_18" opacity="0.1" d="M344.51 360.733C336.556 357.235 328.044 355.18 319.37 354.663C315.2 345.953 314.54 341.473 319.94 341.693C321.44 341.963 322.95 342.283 324.45 342.653C335.05 351.453 344.51 360.733 344.51 360.733Z" fill="black"/>
<path id="Vector_19" opacity="0.1" d="M166.055 99.7295C166.807 100.996 167.718 102.16 168.766 103.195C167.996 101.941 167.086 100.778 166.055 99.7295V99.7295Z" fill="black"/>
<path id="Vector_20" opacity="0.1" d="M286.501 207.141C287.52 208.105 288.475 209.134 289.359 210.223C286.472 203.281 282.906 197.279 278.501 193.141C256.748 172.707 221.152 174.025 221.152 174.025L265.793 194.486C273.443 197.339 280.473 201.636 286.501 207.141Z" fill="black"/>
<path id="Vector_21" opacity="0.1" d="M333.872 117.994C336.563 121.88 335.051 138.37 332.595 155.235C327.417 189.69 333.132 224.901 348.941 255.949C351.041 260.104 353.386 264.13 355.965 268.007C340.899 237.417 335.537 202.956 340.595 169.235C343.051 152.37 344.563 135.88 341.872 131.994C335.94 123.425 310.891 70.6899 308.913 56.847C308.32 51.4766 308.182 46.0658 308.5 40.6721C303.38 26.1436 302.891 0 302.891 0C302.891 0 298.936 29.0042 300.913 42.847C302.891 56.6898 327.94 109.425 333.872 117.994Z" fill="black"/>
<path id="Vector_22" opacity="0.1" d="M395.714 26.8645C395.45 25.5616 395.049 24.2903 394.518 23.0718C394.518 23.0718 395.024 24.4944 395.714 26.8645Z" fill="black"/>
<path id="Vector_23" opacity="0.1" d="M162.887 93.253C168.697 93.9642 175.38 95.7467 180.477 99.8805C180.144 98.7559 179.854 97.7477 179.623 96.9005C173.691 75.1474 142.05 79.1025 142.05 79.1025C156.349 80.9357 160.042 87.0516 162.887 93.253Z" fill="black"/>
<path id="Vector_24" d="M488.514 641.138C478.683 656.214 481.377 675.389 481.377 675.389C481.377 675.389 500.009 670.121 509.84 655.044C519.671 639.968 516.978 620.793 516.978 620.793C516.978 620.793 498.345 626.061 488.514 641.138Z" fill="#3F3D56"/>
<path id="Vector_25" d="M495.899 643.803C495.122 661.785 481.774 675.812 481.774 675.812C481.774 675.812 469.686 660.686 470.463 642.704C471.24 624.723 484.588 610.695 484.588 610.695C484.588 610.695 496.676 625.822 495.899 643.803Z" fill="#58AA57"/>
<g id="leaf">
<path id="Vector_26" d="M290.886 172.047C289.765 190.01 276.151 203.779 276.151 203.779C276.151 203.779 264.354 188.424 265.476 170.461C266.597 152.497 280.211 138.728 280.211 138.728C280.211 138.728 292.007 154.083 290.886 172.047Z" fill="#58AA57"/>
<path id="Vector_27" d="M148.97 58.4849C164.195 68.0837 169.748 86.6337 169.748 86.6337C169.748 86.6337 150.617 89.6208 135.392 80.022C120.167 70.4232 114.613 51.8732 114.613 51.8732C114.613 51.8732 133.745 48.8861 148.97 58.4849Z" fill="#58AA57"/>
<path id="Vector_28" d="M114.97 277.485C130.195 287.084 135.748 305.634 135.748 305.634C135.748 305.634 116.617 308.621 101.392 299.022C86.1665 289.423 80.6133 270.873 80.6133 270.873C80.6133 270.873 99.7448 267.886 114.97 277.485Z" fill="#58AA57"/>
<path id="Vector_29" d="M424.49 90.5013C419.898 107.904 403.867 118.765 403.867 118.765C403.867 118.765 395.281 101.409 399.872 84.0063C404.464 66.6035 420.495 55.7432 420.495 55.7432C420.495 55.7432 429.081 73.0985 424.49 90.5013Z" fill="#58AA57"/>
<path id="Vector_30" d="M569.325 104.071C563.928 121.241 547.409 131.343 547.409 131.343C547.409 131.343 539.64 113.607 545.036 96.4367C550.433 79.2664 566.952 69.1641 566.952 69.1641C566.952 69.1641 574.721 86.9002 569.325 104.071Z" fill="#58AA57"/>
<path id="Vector_31" d="M725.87 295.168C716.094 310.28 697.481 315.617 697.481 315.617C697.481 315.617 694.717 296.452 704.492 281.34C714.268 266.227 732.881 260.891 732.881 260.891C732.881 260.891 735.645 280.056 725.87 295.168Z" fill="#58AA57"/>
</g>
<g id="women">
<path id="Vector_32" d="M579.213 582.052H577.213V363.204C577.214 362.313 577.016 361.432 576.633 360.627C576.25 359.822 575.692 359.112 575 358.551L576.264 357C577.187 357.749 577.93 358.695 578.441 359.768C578.951 360.842 579.215 362.016 579.213 363.204V582.052Z" fill="#3F3D56"/>
<path id="Vector_33" d="M600.431 527.005C600.431 527.005 611.743 515.137 616.372 517.525C621.002 519.912 603.06 530.524 603.06 530.524L600.431 527.005Z" fill="#FFB9B9"/>
<path id="Vector_34" opacity="0.1" d="M600.431 527.005C600.431 527.005 611.743 515.137 616.372 517.525C621.002 519.912 603.06 530.524 603.06 530.524L600.431 527.005Z" fill="black"/>
<path id="Vector_35" d="M565.917 501.103C565.917 501.103 561.758 508.556 562.847 516.591C563.935 524.626 573.886 550.409 577.269 549.951C580.652 549.492 605.712 531.026 605.712 531.026L600.933 524.353L582.625 535.445C582.625 535.445 579.837 495.773 565.917 501.103Z" fill="#D0CDE1"/>
<path id="Vector_36" d="M633.798 519.248L605.259 534.924C605.094 535.034 604.906 535.106 604.71 535.136C604.513 535.166 604.313 535.152 604.122 535.096C603.932 535.039 603.756 534.942 603.607 534.811C603.458 534.679 603.34 534.517 603.261 534.334L596.269 519.721C596.137 519.304 596.158 518.854 596.33 518.452C596.502 518.05 596.812 517.723 597.204 517.53L620.899 505.317C621.191 505.142 621.538 505.08 621.872 505.144C622.207 505.208 622.506 505.393 622.712 505.664L634.548 516.814C634.665 517.022 634.738 517.251 634.763 517.488C634.788 517.725 634.765 517.964 634.695 518.192C634.625 518.419 634.509 518.63 634.355 518.812C634.201 518.993 634.012 519.142 633.798 519.248V519.248Z" fill="#2F2E41"/>
<path id="Vector_37" d="M631.894 517.088L605.139 532.381L598.019 519.549L620.971 507.067L631.894 517.088Z" fill="#FDFDFD"/>
<path id="Vector_38" d="M609.446 512.668C609.585 512.501 609.583 512.27 609.44 512.151C609.298 512.032 609.069 512.071 608.93 512.238C608.791 512.405 608.793 512.637 608.936 512.756C609.078 512.874 609.306 512.835 609.446 512.668Z" fill="#F2F2F2"/>
<path id="Vector_39" d="M619.293 525.725C619.386 525.614 619.385 525.46 619.29 525.38C619.195 525.301 619.042 525.327 618.949 525.439C618.857 525.55 618.858 525.704 618.953 525.784C619.048 525.863 619.2 525.837 619.293 525.725Z" fill="#F2F2F2"/>
<path id="Vector_40" opacity="0.1" d="M565.917 501.103C565.917 501.103 561.758 508.556 562.847 516.591C563.935 524.626 573.886 550.409 577.269 549.951C580.652 549.492 605.712 531.026 605.712 531.026L600.933 524.353L582.625 535.445C582.625 535.445 579.837 495.773 565.917 501.103Z" fill="black"/>
<path id="Vector_41" d="M592.782 529.272C592.782 529.272 605.585 519.03 609.852 522.017C614.119 525.004 594.916 533.113 594.916 533.113L592.782 529.272Z" fill="#FFB9B9"/>
<path id="Vector_42" d="M575.713 488.305C582.547 488.305 588.088 482.764 588.088 475.929C588.088 469.094 582.547 463.554 575.713 463.554C568.878 463.554 563.337 469.094 563.337 475.929C563.337 482.764 568.878 488.305 575.713 488.305Z" fill="#FFB9B9"/>
<path id="Vector_43" d="M618.387 562.131C618.387 562.131 631.616 563.838 631.189 571.946C630.762 580.055 620.947 613.767 620.947 613.767L620.094 626.996C620.094 626.996 620.947 649.187 618.387 648.76C615.826 648.334 609.852 632.971 609.852 632.971C609.852 632.971 602.597 628.277 606.011 624.009C609.425 619.742 611.986 620.169 611.132 615.474C610.279 610.78 610.705 591.15 613.266 585.176C615.826 579.201 617.318 575.906 617.318 575.906L608.998 575.36L618.387 562.131Z" fill="#FFB9B9"/>
<path id="Vector_44" opacity="0.1" d="M618.387 562.131C618.387 562.131 631.616 563.838 631.189 571.946C630.762 580.055 620.947 613.767 620.947 613.767L620.094 626.996C620.094 626.996 620.947 649.187 618.387 648.76C615.826 648.334 609.852 632.971 609.852 632.971C609.852 632.971 602.597 628.277 606.011 624.009C609.425 619.742 611.986 620.169 611.132 615.474C610.279 610.78 610.705 591.15 613.266 585.176C615.826 579.201 617.318 575.906 617.318 575.906L608.998 575.36L618.387 562.131Z" fill="black"/>
<path id="Vector_45" d="M619.241 564.265C619.241 564.265 632.043 567.252 633.323 575.787C634.604 584.322 641.005 609.5 641.005 609.5L647.833 625.289C647.833 625.289 658.501 644.493 653.807 644.066C649.113 643.64 642.712 634.251 640.578 634.251C638.444 634.251 632.043 631.691 632.47 629.984C632.897 628.277 635.884 623.156 635.884 623.156L625.559 605.171C623.566 601.699 622.059 597.97 621.081 594.088C620.021 589.876 618.814 584.716 618.814 583.042C618.814 580.055 610.279 578.774 610.279 578.774L619.241 564.265Z" fill="#FFB9B9"/>
<path id="Vector_46" d="M577.42 536.954L583.394 554.023C583.394 554.023 592.782 556.584 599.61 558.718C606.438 560.851 619.24 557.864 620.521 562.985C621.801 568.106 617.96 577.068 614.12 579.201C610.279 581.335 608.145 583.469 595.77 580.055C583.394 576.641 553.949 575.787 553.949 575.787C551.094 577.5 547.88 578.523 544.56 578.775C539.013 579.201 537.732 579.628 536.025 578.348C534.318 577.068 536.879 577.068 537.732 573.654C538.586 570.24 539.013 571.52 542.853 567.679C546.694 563.839 549.681 552.316 551.815 548.476C553.949 544.635 555.229 536.954 555.229 536.954H577.42Z" fill="#2F2E41"/>
<path id="Vector_47" d="M576.566 486.171C575.016 487.304 573.747 488.778 572.859 490.48C571.971 492.183 571.487 494.067 571.445 495.986C571.445 502.387 558.643 489.158 558.643 489.158C558.643 489.158 565.47 480.623 565.47 478.063C565.47 475.502 576.566 486.171 576.566 486.171Z" fill="#FFB9B9"/>
<path id="Vector_48" d="M560.35 483.61C560.35 483.61 568.031 486.598 569.738 490.865C571.445 495.132 577.846 504.094 577.846 504.094C577.846 504.094 586.808 513.482 583.821 523.724C580.833 533.966 578.273 536.527 578.273 538.234C578.273 539.941 574.006 542.928 570.592 542.501C567.178 542.074 554.375 540.367 553.522 538.66C552.668 536.953 547.547 512.629 550.961 503.667C553.731 496.819 556.865 490.124 560.35 483.61V483.61Z" fill="#D0CDE1"/>
<path id="Vector_49" d="M579.302 476.492C582.071 477.149 584.789 475.385 587.058 473.635C588.347 472.642 589.765 471.225 589.37 469.627C589.02 468.208 587.349 467.404 587.106 465.963C586.937 464.961 587.522 463.987 587.57 462.971C587.528 462.198 587.274 461.45 586.835 460.811C586.397 460.172 585.792 459.666 585.085 459.347C583.736 458.621 582.206 458.318 580.82 457.668C578.703 456.675 576.944 454.885 574.683 454.311C571.595 453.528 568.45 455.196 565.275 455.412C563.353 455.542 561.407 455.137 559.506 455.452C557.693 455.819 556.057 456.785 554.86 458.195C553.663 459.606 552.976 461.378 552.909 463.226C552.885 464.584 553.156 466.099 552.346 467.176C552.025 467.547 551.661 467.878 551.26 468.16C548.436 470.443 547.154 474.258 547.008 477.933C546.936 479.742 547.315 481.891 548.92 482.66C549.78 482.954 550.688 483.081 551.595 483.032C552.051 483.013 552.505 483.106 552.917 483.302C553.329 483.499 553.686 483.793 553.958 484.16C554.689 485.449 553.593 487.354 554.55 488.479C555.268 489.325 556.669 489.044 557.508 488.324C558.347 487.603 558.87 486.567 559.665 485.797C561.212 484.299 563.506 484.027 565.626 483.8C566.255 483.795 566.866 483.594 567.375 483.226C567.76 482.822 568.011 482.308 568.092 481.756C568.372 480.484 568.375 479.168 568.103 477.895C567.968 477.501 567.951 477.076 568.054 476.673C568.194 476.386 568.411 476.143 568.68 475.972C569.994 474.984 572.296 473.547 574.004 473.819C575.899 474.121 577.39 476.038 579.302 476.492Z" fill="#2F2E41"/>
<path id="Vector_50" d="M562.057 498.973C562.057 498.973 556.937 505.801 556.937 513.909C556.937 522.017 563.338 548.902 566.752 548.902C570.166 548.902 597.477 533.966 597.477 533.966L593.636 526.712L574.006 535.247C574.006 535.247 576.567 495.559 562.057 498.973Z" fill="#D0CDE1"/>
<path id="Vector_51" d="M620 576H522V595H620V576Z" fill="#58AA57"/>
<path id="Vector_52" d="M571.001 596C568.88 595.998 566.847 595.154 565.347 593.654C563.847 592.154 563.003 590.121 563.001 588V363C563.001 361.487 563.43 360.006 564.238 358.727C565.046 357.448 566.2 356.424 567.566 355.775C568.933 355.125 570.455 354.877 571.957 355.057C573.459 355.238 574.879 355.841 576.052 356.796L574.788 358.347C573.908 357.63 572.843 357.178 571.717 357.043C570.591 356.907 569.449 357.094 568.424 357.581C567.4 358.068 566.534 358.836 565.928 359.795C565.322 360.754 565.001 361.866 565.001 363V588C565.003 589.591 565.635 591.116 566.76 592.241C567.885 593.366 569.41 593.998 571.001 594V596Z" fill="#3F3D56"/>
<path id="Vector_53" d="M555.879 470.339C556.309 469.993 555.817 468.666 554.78 467.374C553.742 466.082 552.552 465.315 552.121 465.661C551.691 466.007 552.183 467.334 553.22 468.626C554.258 469.918 555.448 470.685 555.879 470.339Z" fill="#58AA57"/>
</g>
</g>
<defs>
<clipPath id="clip0">
<rect width="855.316" height="676.006" fill="white"/>
</clipPath>
</defs>
</svg>
